# xmcd
# 
# Track frame offsets:
#     150
#     24985
#     49045
#     64790
#     87832
#     109805
#     127987
#     155342
#     177267
#     196657
#     220457
#     250915
# 
# Disc length: 4422
# 
# Revision: 1
# Processed by: cddbd v1.5.2PL0 Copyright (c) Steve Scherf et al.
# Submitted via: fre:ac v1.0.17
# 
DISCID=9b11440c
DTITLE=Don Walker - We're All Gunna Die
DYEAR=1995
DGENRE=Rock
TTITLE0=Party
TTITLE1=Eternity
TTITLE2=My Girl
TTITLE3=The Wedding
TTITLE4=The Good Book
TTITLE5=The Circus
TTITLE6=I am the King
TTITLE7=Howl at the Moon
TTITLE8=In the End
TTITLE9=Carless in Isa
TTITLE10=We're All Gunna Die
TTITLE11=Three Blackbirds
EXTD=
EXTT0=
EXTT1=
EXTT2=
EXTT3=
EXTT4=
EXTT5=
EXTT6=
EXTT7=
EXTT8=
EXTT9=
EXTT10=
EXTT11=
PLAYORDER=
